Coordinates
version=1
nRows=16
nColumns=22
inDegrees=yes

Units are S.I. units (second, meters, Newtons, ...)
If the header above contains a line with 'inDegrees', this indicates whether rotational values are in degrees (yes) or radians (no).

endheader
time	pelvis_tilt	pelvis_list	pelvis_rotation	pelvis_tx	pelvis_ty	pelvis_tz	hip_flexion_r	hip_adduction_r	hip_rotation_r	knee_angle_r	ankle_angle_r	subtalar_angle_r	hip_flexion_l	hip_adduction_l	hip_rotation_l	knee_angle_l	ankle_angle_l	subtalar_angle_l	lumbar_extension	lumbar_bending	lumbar_rotation
      2.10000000	    -20.37673811	      3.42929513	    -26.21920609	     -0.83063356	      0.87871346	     -0.23540957	     42.39116431	      8.17705025	     -6.07846170	    -53.04711064	     35.51757319	     -6.16044002	     58.16388523	     -8.06488757	     -1.74184241	    -85.95585874	     15.16551657	     -1.68189601	    -17.16578047	      3.51890481	     13.32232502
      2.11000000	    -20.25561606	      3.38404482	    -26.58403710	     -0.81571123	      0.87973906	     -0.22855341	     40.70172196	      8.37511720	     -5.71631100	    -52.30588178	     36.21720980	     -6.05248381	     60.00376752	     -8.65567184	     -2.02782156	    -84.10216245	     15.77072318	     -1.76012189	    -17.10892917	      3.26371104	     14.20069509
      2.12000000	    -20.10614039	      3.31954304	    -26.88069695	     -0.80026684	      0.88110186	     -0.22174058	     38.84766887	      8.50861547	     -5.38170012	    -51.37161260	     36.87085021	     -5.86239177	     61.54914741	     -9.16857686	     -2.34446461	    -81.74110092	     16.16484584	     -1.65093411	    -17.05114236	      3.03953814	     15.06616465
      2.13000000	    -19.95825245	      3.24451839	    -27.10013241	     -0.78426890	      0.88275898	     -0.21495423	     36.85488596	      8.57971734	     -5.08256979	    -50.23171927	     37.43095702	     -5.62487838	     62.80629354	     -9.60267091	     -2.70639976	    -78.89847860	     16.34957438	     -1.25653806	    -16.94655639	      2.85762947	     15.89375285
      2.14000000	    -19.82006369	      3.14404752	    -27.19916790	     -0.76764210	      0.88470477	     -0.20824649	     34.71357001	      8.56882881	     -4.89317880	    -48.86487825	     37.93257238	     -5.25081146	     63.76931448	     -9.92740515	     -3.10341840	    -75.61546276	     16.27939113	     -0.34873552	    -16.78927299	      2.75099481	     16.62619922
      2.15000000	    -19.71971627	      3.01373665	    -27.26501308	     -0.75044667	      0.88688552	     -0.20144073	     32.44760679	      8.56855676	     -4.71344482	    -47.26625673	     38.24045357	     -4.87473380	     64.43962392	    -10.24647578	     -3.59619487	    -71.94890795	     15.97524594	      0.75733564	    -16.54813721	      2.70954488	     17.36615937
      2.16000000	    -19.62789399	      2.84029943	    -27.27675061	     -0.73259105	      0.88931831	     -0.19457660	     30.03102010	      8.56263794	     -4.56219708	    -45.45559329	     38.33652527	     -4.38423690	     64.77997152	    -10.52694224	     -4.18698071	    -67.96585796	     15.38496259	      2.22619881	    -16.25368581	      2.74461446	     18.07717087
      2.17000000	    -19.51684190	      2.61614596	    -27.25437645	     -0.71403495	      0.89198681	     -0.18763100	     27.45402265	      8.56200456	     -4.40935926	    -43.47479337	     38.17373686	     -3.76679550	     64.76271216	    -10.76802749	     -4.88763525	    -63.75984460	     14.51795399	      4.03601448	    -15.93191882	      2.84725483	     18.76045749
      2.18000000	    -19.37505923	      2.34282116	    -27.21713513	     -0.69478379	      0.89481890	     -0.18059724	     24.74777252	      8.57615350	     -4.21687820	    -41.39893044	     37.71682981	     -2.99580158	     64.40121185	    -10.96632318	     -5.69368791	    -59.45737028	     13.39194317	      6.20257150	    -15.58923741	      3.00935414	     19.41916513
      2.19000000	    -19.19207677	      2.02792047	    -27.17952638	     -0.67485665	      0.89772901	     -0.17349907	     21.96442663	      8.60204269	     -3.95265325	    -39.33367825	     36.93708788	     -2.06252696	     63.72573304	    -11.10834583	     -6.58374263	    -55.20758014	     12.06131791	      8.64751830	    -15.23188051	      3.21958621	     20.04226979
      2.20000000	    -18.97082427	      1.68414452	    -27.15370316	     -0.65433607	      0.90061395	     -0.16637336	     19.19176838	      8.63204218	     -3.59861465	    -37.41489059	     35.80390082	     -0.96185157	     62.79803122	    -11.18632963	     -7.52179437	    -51.17988855	     10.63243007	     11.20877591	    -14.85658686	      3.46697094	     20.61585551
      2.21000000	    -18.74003270	      1.32947718	    -27.15318450	     -0.63338262	      0.90333905	     -0.15926786	     16.56566877	      8.66496375	     -3.14137798	    -35.80754282	     34.33529179	      0.31332393	     61.72150340	    -11.20033077	     -8.43903048	    -47.55380407	      9.23516170	     13.64573534	    -14.43844169	      3.74480982	     21.15378323
      2.22000000	    -18.53654495	      0.97586024	    -27.18014922	     -0.61217693	      0.90579468	     -0.15221288	     14.22129770	      8.70917232	     -2.57326104	    -34.66093648	     32.55203544	      1.76683933	     60.60987359	    -11.17680030	     -9.30062699	    -44.50446866	      8.00393307	     15.62802503	    -13.95332021	      4.05742422	     21.61516612
      2.23000000	    -18.35486180	      0.64258504	    -27.20181895	     -0.59086189	      0.90795229	     -0.14532653	     12.26396052	      8.72546389	     -1.97163044	    -34.12762376	     30.44682727	      3.30873722	     59.51255141	    -11.07506503	    -10.03002806	    -42.13851859	      7.12681471	     16.73827047	    -13.42240017	      4.38516419	     21.96583042
      2.24000000	    -18.24836559	      0.33406138	    -27.22866755	     -0.56966720	      0.90969746	     -0.13857848	     10.81740925	      8.75712262	     -1.30225131	    -34.30181557	     28.09585164	      4.93767611	     58.54384990	    -10.95821102	    -10.61157943	    -40.56263341	      6.64315291	     16.72254005	    -12.81155895	      4.73809587	     22.19676530
      2.25000000	    -18.20198568	      0.05901717	    -27.22719535	     -0.54871023	      0.91100930	     -0.13200744	      9.92586547	      8.79357075	     -0.61369850	    -35.24417186	     25.50268980	      6.51371488	     57.71203447	    -10.80431540	    -11.00945446	    -39.77620264	      6.62090732	     15.40243683	    -12.15191528	      5.08968365	     22.28710612
